<?xml version="1.0" encoding="utf-8"?>
<!-- Generator: Adobe Illustrator 16.0.0, SVG Export Plug-In . SVG Version: 6.00 Build 0)  -->
<!DOCTYPE svg PUBLIC "-//W3C//DTD SVG 1.1//EN" "http://www.w3.org/Graphics/SVG/1.1/DTD/svg11.dtd">
<svg version="1.1" id="Camada_1" xmlns="http://www.w3.org/2000/svg" xmlns:xlink="http://www.w3.org/1999/xlink" x="0px" y="0px"
	 width="234.741px" height="67.839px" viewBox="0 0 234.741 67.839" enable-background="new 0 0 234.741 67.839"
	 xml:space="preserve">
<g id="Layer_2" display="none">
	
		<rect x="-48.42" y="-14.018" display="inline" fill-rule="evenodd" clip-rule="evenodd" fill="#5D5D5D" width="312.25" height="156.25"/>
</g>
<path fill-rule="evenodd" clip-rule="evenodd" fill="#FFFFFF" d="M228.507,5.711c0.909,0,1.728-0.066,1.728-1.154
	c0-0.879-0.798-1.042-1.546-1.042h-1.465v2.196H228.507L228.507,5.711z M227.224,9.694h-1.071V2.602h2.697
	c1.678,0,2.506,0.618,2.506,2.019c0,1.267-0.798,1.821-1.838,1.949l2.021,3.125h-1.203l-1.879-3.075h-1.232V9.694L227.224,9.694z
	 M228.528,11.271c-2.819,0-5.012-2.178-5.012-5.14c0-2.911,2.192-5.107,5.012-5.107c2.778,0,4.98,2.196,4.98,5.107
	C233.508,9.093,231.306,11.271,228.528,11.271L228.528,11.271z M222.283,6.131c0-3.529,2.86-6.131,6.245-6.131
	c3.344,0,6.213,2.602,6.213,6.131c0,3.563-2.869,6.165-6.213,6.165C225.143,12.295,222.283,9.694,222.283,6.131z"/>
<path fill-rule="evenodd" clip-rule="evenodd" fill="#FFFFFF" d="M35.738,3.678v10.778h-1.052c-0.631-2.495-1.322-4.277-2.083-5.359
	c-0.761-1.091-1.813-1.953-3.145-2.594c-0.741-0.361-2.043-0.531-3.896-0.531h-2.965v30.69c0,2.033,0.11,3.305,0.331,3.816
	c0.23,0.511,0.671,0.952,1.322,1.332c0.661,0.391,1.553,0.581,2.685,0.581h1.322v1.082H7.422v-1.082h1.322
	c1.151,0,2.083-0.21,2.784-0.621c0.511-0.27,0.912-0.741,1.202-1.412c0.22-0.461,0.33-1.693,0.33-3.696V5.972h-2.884
	c-2.674,0-4.627,0.561-5.84,1.703c-1.703,1.583-2.774,3.846-3.225,6.781H0V3.678H35.738L35.738,3.678z M39.324,3.678h20.533V4.77
	h-1.022c-1.542,0-2.604,0.16-3.185,0.48c-0.581,0.321-0.992,0.771-1.232,1.333c-0.24,0.571-0.371,1.993-0.371,4.257v19.481
	c0,3.566,0.271,5.919,0.812,7.082c0.541,1.152,1.422,2.104,2.654,2.875c1.232,0.761,2.784,1.142,4.667,1.142
	c2.153,0,3.987-0.48,5.499-1.452c1.522-0.972,2.654-2.304,3.405-4.007c0.751-1.703,1.132-4.667,1.132-8.895V10.84
	c0-1.783-0.19-3.055-0.561-3.816c-0.37-0.762-0.841-1.292-1.402-1.583C69.373,4.99,68.131,4.77,66.518,4.77V3.678h13.763V4.77
	h-0.822c-1.112,0-2.043,0.22-2.784,0.671c-0.741,0.45-1.282,1.122-1.613,2.023c-0.25,0.631-0.381,1.753-0.381,3.375v15.114
	c0,4.678-0.31,8.053-0.921,10.127c-0.621,2.073-2.123,3.976-4.507,5.719c-2.384,1.743-5.649,2.614-9.775,2.614
	c-3.436,0-6.1-0.461-7.983-1.382c-2.554-1.252-4.367-2.855-5.429-4.808c-1.052-1.963-1.583-4.588-1.583-7.903V10.84
	c0-2.284-0.12-3.706-0.381-4.267c-0.25-0.561-0.691-1.002-1.322-1.333C42.159,4.9,41.006,4.75,39.324,4.77V3.678L39.324,3.678z
	 M109.949,29.911l10.808-26.233h16.196V4.77h-1.292c-1.172,0-2.113,0.2-2.814,0.611c-0.491,0.28-0.882,0.741-1.183,1.382
	c-0.21,0.471-0.32,1.693-0.32,3.666v26.233c0,2.033,0.11,3.305,0.32,3.816c0.221,0.511,0.661,0.952,1.323,1.332
	c0.671,0.391,1.552,0.581,2.674,0.581h1.292v1.082h-20.783v-1.082h1.292c1.182,0,2.113-0.21,2.824-0.621
	c0.48-0.27,0.882-0.741,1.172-1.412c0.21-0.461,0.32-1.693,0.32-3.696V7.174l-15.255,36.299h-0.711L90.317,7.435V35.46
	c0,1.953,0.05,3.165,0.15,3.616c0.25,0.972,0.811,1.773,1.663,2.384c0.852,0.621,2.184,0.932,4.006,0.932v1.082H82.514v-1.082h0.411
	c0.881,0.02,1.703-0.13,2.464-0.431s1.342-0.711,1.733-1.212c0.391-0.511,0.691-1.232,0.912-2.144c0.04-0.22,0.06-1.212,0.06-2.995
	V10.429c0-2.013-0.11-3.266-0.321-3.766c-0.22-0.501-0.661-0.941-1.322-1.322C85.78,4.96,84.888,4.77,83.776,4.77h-1.262V3.678
	h16.256L109.949,29.911L109.949,29.911z M163.035,32.145h-14.053l-1.673,3.876c-0.551,1.292-0.821,2.354-0.821,3.195
	c0,1.122,0.451,1.943,1.353,2.464c0.521,0.32,1.823,0.551,3.896,0.711v1.082h-13.231v-1.082c1.422-0.22,2.604-0.812,3.516-1.783
	c0.922-0.961,2.063-2.965,3.405-6L159.66,2.857h0.561l14.344,32.633c1.372,3.095,2.494,5.039,3.375,5.84
	c0.671,0.611,1.613,0.961,2.824,1.062v1.082h-19.251v-1.082h0.792c1.542,0,2.634-0.22,3.255-0.651
	c0.431-0.311,0.651-0.761,0.651-1.353c0-0.35-0.061-0.711-0.181-1.082c-0.04-0.18-0.33-0.912-0.881-2.204L163.035,32.145
	L163.035,32.145z M162.034,29.971l-5.92-13.703l-6.11,13.703H162.034L162.034,29.971z M197.401,25.333v11.158
	c0,2.153,0.13,3.505,0.391,4.056c0.271,0.562,0.731,1.012,1.393,1.342c0.671,0.331,1.913,0.501,3.735,0.501v1.082h-20.373v-1.082
	c1.844,0,3.085-0.17,3.746-0.521c0.651-0.341,1.112-0.781,1.383-1.332c0.26-0.551,0.391-1.893,0.391-4.046V10.669
	c0-2.153-0.131-3.506-0.391-4.066c-0.271-0.561-0.731-1.001-1.402-1.333c-0.661-0.34-1.903-0.5-3.727-0.5V3.678h18.49
	c4.818,0,8.334,0.34,10.567,1.001c2.224,0.661,4.047,1.894,5.459,3.687c1.402,1.782,2.113,3.886,2.113,6.29
	c0,2.935-1.062,5.358-3.175,7.282c-1.353,1.212-3.235,2.124-5.659,2.724l9.565,13.472c1.252,1.743,2.144,2.824,2.664,3.255
	c0.812,0.611,1.732,0.941,2.795,1.001v1.082h-12.53l-12.821-18.14H197.401L197.401,25.333z M197.401,5.821V23.25h1.673
	c2.714,0,4.748-0.24,6.1-0.741c1.353-0.501,2.414-1.402,3.186-2.704c0.771-1.302,1.162-2.995,1.162-5.088
	c0-3.035-0.712-5.269-2.134-6.721c-1.412-1.452-3.696-2.174-6.852-2.174H197.401z"/>
<path fill-rule="evenodd" clip-rule="evenodd" fill="#FFFFFF" d="M73.681,65.99c-0.284-0.085-0.579-0.149-0.884-0.195
	c-0.305-0.046-0.618-0.067-0.944-0.067c-0.561,0-1.093,0.099-1.59,0.298c-0.5,0.195-0.912,0.469-1.239,0.816
	c0.216,0.082,0.44,0.146,0.678,0.185c0.234,0.042,0.482,0.064,0.746,0.064c0.667,0,1.271-0.092,1.81-0.277
	C72.797,66.632,73.273,66.355,73.681,65.99L73.681,65.99z M75.367,63.346c0.458-0.909,1.058-2.594,1.806-5.061l0.178-0.582
	c-0.625-0.28-1.239-0.487-1.846-0.625s-1.206-0.209-1.803-0.209c-0.458,0-0.901,0.042-1.331,0.124
	c-0.43,0.085-0.848,0.209-1.256,0.376l-0.156-0.032l-0.064-0.188l0.042-0.125c0.422-0.216,0.88-0.376,1.367-0.482
	c0.49-0.11,1-0.163,1.533-0.163c0.603,0,1.21,0.074,1.82,0.224c0.61,0.148,1.228,0.372,1.86,0.674
	c0.152-0.458,0.309-0.88,0.472-1.267c0.164-0.383,0.327-0.735,0.483-1.054c-0.838-0.422-1.675-0.742-2.509-0.958
	c-0.834-0.217-1.643-0.323-2.427-0.323c-1.427,0-2.58,0.394-3.457,1.186c-0.877,0.791-1.313,1.824-1.313,3.098
	c0,1.228,0.579,2.317,1.735,3.265C71.658,62.175,73.28,62.881,75.367,63.346L75.367,63.346z M76.708,63.449
	c0.302-0.511,0.607-1.175,0.909-1.984c0.302-0.813,0.614-1.803,0.94-2.974c0.554,0.376,0.979,0.795,1.278,1.264
	c0.298,0.468,0.447,0.94,0.447,1.419c0,0.706-0.256,1.271-0.771,1.689c-0.511,0.419-1.203,0.628-2.076,0.628
	c-0.128,0-0.33-0.011-0.614-0.032C76.772,63.46,76.733,63.456,76.708,63.449L76.708,63.449z M75.001,65.926
	c0.291-0.362,0.558-0.71,0.802-1.047c0.241-0.333,0.461-0.664,0.653-0.983c0.029,0.007,0.071,0.011,0.125,0.011
	c0.326,0.021,0.554,0.032,0.678,0.032c1.093,0,1.956-0.249,2.577-0.742c0.625-0.497,0.937-1.171,0.937-2.023
	c0-0.568-0.167-1.114-0.5-1.643c-0.33-0.525-0.838-1.036-1.519-1.526c0.135-0.458,0.273-0.887,0.419-1.281
	c0.145-0.394,0.298-0.777,0.454-1.143c1.118,0.742,1.991,1.647,2.619,2.719c0.628,1.072,0.94,2.183,0.94,3.343
	c0,1.498-0.465,2.701-1.398,3.613s-2.165,1.367-3.698,1.367c-0.476,0-0.973-0.057-1.48-0.17
	C76.098,66.338,75.562,66.16,75.001,65.926L75.001,65.926z M74.618,66.292c-0.493,0.408-1.061,0.71-1.707,0.909
	c-0.642,0.195-1.376,0.294-2.204,0.294c-0.649,0-1.253-0.053-1.806-0.156c-0.558-0.104-1.04-0.256-1.455-0.458v-0.125
	c0.422-0.518,0.958-0.908,1.611-1.167c0.649-0.259,1.412-0.39,2.285-0.39c0.437,0,0.891,0.035,1.355,0.11
	c0.469,0.071,0.941,0.177,1.409,0.316c0.139-0.139,0.284-0.344,0.437-0.614c0.153-0.27,0.366-0.685,0.635-1.239
	c-2.466-0.532-4.383-1.349-5.749-2.449c-1.367-1.097-2.048-2.36-2.048-3.79c0-1.26,0.536-2.311,1.607-3.148
	c1.068-0.841,2.435-1.26,4.099-1.26c0.88,0,1.789,0.117,2.729,0.348c0.94,0.234,1.917,0.585,2.935,1.058
	c0.592-0.763,1.256-1.352,1.998-1.771c0.742-0.415,1.562-0.653,2.456-0.717l0.103,0.082v0.188l-0.103,0.106
	c-0.805,0.17-1.487,0.479-2.051,0.919c-0.561,0.44-1.015,1.022-1.363,1.743c1.483,1.089,2.616,2.239,3.393,3.453
	c0.777,1.214,1.164,2.431,1.164,3.659c0,0.72-0.131,1.401-0.394,2.044c-0.266,0.639-0.643,1.21-1.136,1.707
	c-0.504,0.508-1.079,0.891-1.725,1.157c-0.646,0.262-1.328,0.394-2.048,0.394c-0.589,0-1.253-0.099-1.991-0.302
	C76.318,66.994,75.505,66.693,74.618,66.292L74.618,66.292z M87.309,64.688c1.011-0.227,1.842-0.667,2.484-1.32
	c0.646-0.653,0.969-1.355,0.969-2.111c0-0.256-0.061-0.455-0.181-0.596c-0.121-0.142-0.298-0.213-0.525-0.213
	c-0.564,0-1.114,0.405-1.654,1.21C87.859,62.466,87.497,63.474,87.309,64.688L87.309,64.688z M95.013,61.515
	c0.021,0.028,0.039,0.063,0.05,0.103c0.011,0.042,0.014,0.092,0.014,0.146c0,0.203-0.075,0.455-0.224,0.756
	c-0.149,0.302-0.38,0.671-0.692,1.107c-0.923,1.267-1.884,2.247-2.885,2.931c-1.001,0.686-1.97,1.029-2.907,1.029
	c-0.763,0-1.366-0.241-1.813-0.724c-0.447-0.479-0.67-1.125-0.67-1.938c0-0.554,0.12-1.122,0.365-1.7
	c0.242-0.579,0.596-1.143,1.058-1.689c0.426-0.497,0.898-0.891,1.427-1.175c0.525-0.284,1.036-0.426,1.529-0.426
	c0.504,0,0.923,0.142,1.253,0.422s0.494,0.632,0.494,1.054c0,0.688-0.43,1.377-1.285,2.076c-0.855,0.695-1.994,1.26-3.417,1.689
	c0,0.561,0.142,1.001,0.426,1.324c0.284,0.323,0.674,0.483,1.164,0.483c0.887,0,1.874-0.483,2.957-1.445
	C92.934,64.574,93.988,63.232,95.013,61.515L95.013,61.515z M97.281,67.048c0.741-0.075,1.451-0.362,2.125-0.862
	c0.678-0.501,1.413-1.299,2.211-2.393c0.38-0.514,0.667-0.954,0.862-1.327c0.195-0.369,0.292-0.66,0.292-0.869
	c0-0.053-0.007-0.103-0.021-0.146c-0.014-0.039-0.039-0.075-0.071-0.103c-0.916,1.526-1.76,2.718-2.537,3.577
	c-0.777,0.862-1.441,1.334-1.998,1.427c0.216-0.224,0.373-0.437,0.476-0.646c0.099-0.209,0.149-0.419,0.149-0.635
	c0-0.298-0.089-0.585-0.266-0.862c-0.178-0.277-0.451-0.564-0.827-0.862c-0.146-0.11-0.348-0.263-0.61-0.458
	c-0.756-0.539-1.132-1.004-1.132-1.391c0-0.298,0.131-0.546,0.395-0.749c0.262-0.203,0.6-0.302,1.007-0.302
	c0.27,0,0.487,0.061,0.65,0.178s0.245,0.266,0.245,0.443c0,0.153-0.032,0.298-0.099,0.437c-0.067,0.139-0.167,0.263-0.309,0.376
	l0.074,0.103c0.415-0.028,0.767-0.146,1.054-0.358c0.287-0.213,0.433-0.444,0.433-0.703c0-0.323-0.124-0.568-0.373-0.728
	c-0.252-0.159-0.628-0.237-1.132-0.237c-0.873,0-1.625,0.22-2.257,0.656c-0.628,0.437-0.944,0.934-0.944,1.494
	c0,0.277,0.092,0.543,0.28,0.795c0.188,0.256,0.614,0.632,1.277,1.129c0.561,0.415,0.916,0.734,1.068,0.958
	c0.153,0.22,0.227,0.461,0.227,0.717c0,0.387-0.17,0.713-0.514,0.973c-0.341,0.259-0.774,0.39-1.292,0.39
	c-0.333,0-0.604-0.071-0.816-0.209c-0.209-0.138-0.315-0.316-0.315-0.529c0-0.145,0.039-0.284,0.113-0.412
	c0.078-0.127,0.181-0.234,0.316-0.316v-0.085c-0.092-0.032-0.188-0.061-0.288-0.078c-0.103-0.018-0.202-0.025-0.309-0.025
	c-0.352,0-0.646,0.089-0.873,0.266c-0.23,0.178-0.344,0.401-0.344,0.671c0,0.348,0.191,0.632,0.579,0.852
	c0.383,0.223,0.887,0.333,1.512,0.333c0.309,0,0.632-0.039,0.958-0.121C96.585,67.339,96.926,67.214,97.281,67.048L97.281,67.048z
	 M106.494,61.007c-0.533,1.714-1.146,3.112-1.838,4.202c-0.696,1.089-1.295,1.632-1.799,1.632c-0.249,0-0.437-0.085-0.561-0.256
	c-0.124-0.17-0.188-0.418-0.188-0.741c0-0.564,0.163-1.21,0.49-1.941c0.323-0.731,0.777-1.452,1.359-2.158
	c0.348-0.415,0.66-0.724,0.944-0.926c0.281-0.202,0.54-0.302,0.784-0.302c0.167,0,0.313,0.039,0.437,0.114
	C106.246,60.709,106.37,60.833,106.494,61.007L106.494,61.007z M105.621,64.407c-0.604,1.083-1.153,1.87-1.647,2.367
	c-0.497,0.493-0.976,0.742-1.44,0.742c-0.547,0-0.983-0.195-1.306-0.582c-0.323-0.391-0.483-0.916-0.483-1.583
	c0-0.65,0.149-1.299,0.444-1.949s0.72-1.256,1.281-1.824c0.479-0.493,0.987-0.876,1.526-1.146c0.536-0.27,1.05-0.405,1.543-0.405
	c0.16,0,0.327,0.021,0.508,0.064c0.181,0.039,0.387,0.11,0.614,0.206l1.541-5.955c0-0.007,0-0.018,0-0.032
	c0.06-0.263,0.185-0.408,0.373-0.437l0.813-0.113h0.039c0.071,0,0.121,0.018,0.152,0.053c0.032,0.032,0.046,0.082,0.046,0.145
	c0,0.025-0.007,0.071-0.021,0.135c-0.015,0.046-0.021,0.078-0.021,0.092l-3.024,11.25c-0.071,0.245-0.117,0.422-0.142,0.536
	c-0.024,0.117-0.035,0.213-0.035,0.298c0,0.206,0.028,0.354,0.089,0.44c0.057,0.089,0.149,0.131,0.277,0.131
	c0.276,0,0.717-0.344,1.32-1.036c0.604-0.688,1.647-2.073,3.137-4.152c0.014,0.035,0.029,0.075,0.039,0.121
	c0.011,0.042,0.014,0.096,0.014,0.149c0,0.312-0.365,0.961-1.093,1.944l-0.195,0.27c-1.008,1.359-1.771,2.261-2.292,2.708
	c-0.525,0.447-1.025,0.671-1.504,0.671c-0.306,0-0.55-0.089-0.739-0.266c-0.188-0.174-0.28-0.405-0.28-0.688
	c0-0.245,0.036-0.536,0.11-0.88C105.333,65.341,105.454,64.915,105.621,64.407L105.621,64.407z M111.15,64.688
	c1.011-0.227,1.842-0.667,2.484-1.32c0.646-0.653,0.969-1.355,0.969-2.111c0-0.256-0.061-0.455-0.181-0.596
	c-0.121-0.142-0.298-0.213-0.525-0.213c-0.564,0-1.114,0.405-1.653,1.21C111.7,62.466,111.338,63.474,111.15,64.688L111.15,64.688z
	 M118.855,61.515c-1.026,1.717-2.08,3.059-3.159,4.024c-1.082,0.962-2.069,1.445-2.956,1.445c-0.49,0-0.88-0.16-1.164-0.483
	c-0.284-0.323-0.426-0.763-0.426-1.324c1.423-0.429,2.563-0.994,3.418-1.689c0.855-0.699,1.284-1.388,1.284-2.076
	c0-0.422-0.163-0.774-0.493-1.054s-0.749-0.422-1.253-0.422c-0.493,0-1.004,0.142-1.529,0.426c-0.529,0.284-1,0.678-1.427,1.175
	c-0.461,0.547-0.816,1.111-1.058,1.689c-0.245,0.578-0.365,1.146-0.365,1.7c0,0.813,0.224,1.458,0.67,1.938
	c0.447,0.482,1.051,0.724,1.814,0.724c0.937,0,1.906-0.344,2.906-1.029c1.001-0.685,1.963-1.664,2.886-2.931
	c0.312-0.437,0.542-0.806,0.691-1.107c0.149-0.301,0.224-0.553,0.224-0.756c0-0.053-0.004-0.103-0.014-0.146
	C118.894,61.579,118.876,61.543,118.855,61.515L118.855,61.515z M124.834,67.016l3.244-10.292c-0.483,0.536-0.973,1.029-1.466,1.487
	c-0.494,0.458-0.97,0.855-1.435,1.196h-0.105l-0.125-0.188l0.021-0.135c0.589-0.518,1.093-0.983,1.516-1.388
	c0.419-0.405,0.773-0.777,1.064-1.118c0.174-0.206,0.369-0.483,0.593-0.831c0.305-0.458,0.575-0.699,0.813-0.728l0.653-0.064h0.042
	c0.05,0,0.082,0.011,0.104,0.032c0.021,0.021,0.032,0.054,0.032,0.093c0,0.021-0.008,0.053-0.021,0.099
	c-0.015,0.046-0.028,0.089-0.043,0.131l-3.432,11.612c-0.039,0.16-0.085,0.259-0.135,0.302c-0.046,0.039-0.132,0.067-0.248,0.082
	l-0.874,0.064h-0.042c-0.063,0-0.11-0.014-0.142-0.042c-0.029-0.028-0.05-0.071-0.057-0.124c0-0.021,0.003-0.046,0.01-0.075
	C124.809,67.104,124.82,67.065,124.834,67.016L124.834,67.016z M134.931,67.818l-0.043,0.021l-0.081-0.021l-0.156-0.209l0.053-0.135
	c1.413-1.185,2.499-2.565,3.255-4.148c0.759-1.579,1.139-3.247,1.139-5c0-1.026-0.146-1.792-0.433-2.304
	c-0.287-0.507-0.721-0.763-1.303-0.763c-0.354,0-0.71,0.106-1.064,0.316c-0.358,0.213-0.678,0.511-0.962,0.901
	c-0.333,0.437-0.585,0.905-0.76,1.409c-0.174,0.5-0.259,1.015-0.259,1.544c0,0.67,0.132,1.192,0.395,1.568
	c0.263,0.373,0.635,0.561,1.11,0.561c0.536,0,1.004-0.27,1.409-0.806c0.404-0.536,0.688-1.277,0.848-2.218l0.061-0.064l0.238,0.021
	l0.063,0.103c-0.16,1.235-0.532,2.247-1.121,3.038c-0.59,0.792-1.246,1.186-1.967,1.186c-0.6,0-1.1-0.238-1.494-0.713
	c-0.394-0.476-0.592-1.075-0.592-1.803c0-0.646,0.138-1.31,0.415-1.998c0.276-0.685,0.674-1.342,1.185-1.962
	c0.43-0.529,0.87-0.919,1.317-1.171c0.447-0.252,0.923-0.38,1.427-0.38c0.854,0,1.564,0.376,2.133,1.128
	c0.567,0.752,0.852,1.718,0.852,2.896c0,1.374-0.512,2.882-1.533,4.528C138.04,64.989,136.663,66.48,134.931,67.818L134.931,67.818z
	 M144.786,67.818l-0.042,0.021l-0.082-0.021l-0.156-0.209l0.054-0.135c1.412-1.185,2.498-2.565,3.255-4.148
	c0.759-1.579,1.139-3.247,1.139-5c0-1.026-0.146-1.792-0.433-2.304c-0.288-0.507-0.721-0.763-1.303-0.763
	c-0.355,0-0.71,0.106-1.064,0.316c-0.358,0.213-0.678,0.511-0.962,0.901c-0.334,0.437-0.586,0.905-0.76,1.409
	c-0.174,0.5-0.259,1.015-0.259,1.544c0,0.67,0.131,1.192,0.394,1.568c0.263,0.373,0.636,0.561,1.111,0.561
	c0.535,0,1.004-0.27,1.408-0.806c0.405-0.536,0.688-1.277,0.849-2.218l0.061-0.064l0.237,0.021l0.064,0.103
	c-0.16,1.235-0.533,2.247-1.122,3.038c-0.589,0.792-1.245,1.186-1.966,1.186c-0.6,0-1.101-0.238-1.494-0.713
	s-0.593-1.075-0.593-1.803c0-0.646,0.139-1.31,0.415-1.998c0.277-0.685,0.675-1.342,1.186-1.962c0.43-0.529,0.869-0.919,1.316-1.171
	c0.447-0.252,0.923-0.38,1.427-0.38c0.855,0,1.565,0.376,2.133,1.128c0.568,0.752,0.853,1.718,0.853,2.896
	c0,1.374-0.512,2.882-1.533,4.528C147.895,64.989,146.518,66.48,144.786,67.818L144.786,67.818z M153.261,66.306l-1.218,1.189
	h-0.085l-0.237-0.167l0.031-0.124l1.402-2.133c0.028-0.042,0.067-0.071,0.117-0.092c0.046-0.021,0.099-0.032,0.156-0.032
	c0.088,0,0.155,0.004,0.202,0.011c0.042,0.007,0.085,0.018,0.116,0.032c1.534-1.679,2.708-3.205,3.524-4.582
	c0.819-1.377,1.228-2.516,1.228-3.425c0-0.472-0.116-0.837-0.354-1.104c-0.234-0.263-0.564-0.394-0.986-0.394
	c-0.643,0-1.235,0.319-1.771,0.958c-0.539,0.635-0.872,1.441-1.004,2.414l-0.061,0.082h-0.272l-0.082-0.125
	c0.131-1.171,0.536-2.133,1.217-2.881c0.678-0.749,1.474-1.122,2.378-1.122c0.734,0,1.345,0.234,1.824,0.707
	c0.482,0.472,0.724,1.064,0.724,1.778c0,1.149-1.827,3.627-5.486,7.431l-0.387,0.408c0.131,0.061,0.323,0.149,0.571,0.259
	c1.448,0.649,2.36,0.976,2.736,0.976c0.337,0,0.667-0.121,0.979-0.358c0.315-0.238,0.66-0.631,1.036-1.178l0.061-0.042l0.199,0.114
	l0.021,0.085c-0.479,0.831-0.958,1.473-1.444,1.923s-0.943,0.674-1.373,0.674c-0.313,0-0.905-0.174-1.778-0.525
	C154.372,66.71,153.711,66.458,153.261,66.306z"/>
<line fill-rule="evenodd" clip-rule="evenodd" fill="none" stroke="#FFFFFF" stroke-miterlimit="10" x1="0.42" y1="59.941" x2="55.924" y2="59.941"/>
<line fill-rule="evenodd" clip-rule="evenodd" fill="none" stroke="#FFFFFF" stroke-miterlimit="10" x1="170.596" y1="59.941" x2="225.413" y2="59.941"/>
</svg>
